<?xml version="1.0" encoding="utf-8"?>
<svg xmlns="http://www.w3.org/2000/svg">
<symbol id="close" viewBox="0 0 24 24"><defs></defs><title>close</title><g id="Layer_2" data-name="Layer 2"><g id="close"><g id="close-2" data-name="close"><path d="M13.41,12l4.3-4.29a1,1,0,1,0-1.42-1.42L12,10.59,7.71,6.29A1,1,0,0,0,6.29,7.71L10.59,12l-4.3,4.29a1,1,0,0,0,0,1.42,1,1,0,0,0,1.42,0L12,13.41l4.29,4.3a1,1,0,0,0,1.42,0,1,1,0,0,0,0-1.42Z"/></g></g></g>
</symbol>
<symbol id="close1" viewBox="0 0 32 32"><defs><style>.cls-1{fill:none;}</style></defs><title/><g data-name="Layer 2" id="Layer_2"><path d="M16,29A13,13,0,1,1,29,16,13,13,0,0,1,16,29ZM16,5A11,11,0,1,0,27,16,11,11,0,0,0,16,5Z"/><path d="M11.76,21.24a1,1,0,0,1-.71-.29,1,1,0,0,1,0-1.41l8.49-8.49A1,1,0,0,1,21,12.46L12.46,21A1,1,0,0,1,11.76,21.24Z"/><path d="M20.24,21.24a1,1,0,0,1-.7-.29l-8.49-8.49a1,1,0,0,1,1.41-1.41L21,19.54A1,1,0,0,1,21,21,1,1,0,0,1,20.24,21.24Z"/></g><g id="frame"><rect class="cls-1" height="32" width="32"/></g>
</symbol>
<symbol id="close2" viewBox="0 0 512 512"><style type="text/css">
<![CDATA[
	.st0{display:inline;}
	.st1{fill:none;stroke:#000000;stroke-width:16;stroke-linecap:round;stroke-linejoin:round;stroke-miterlimit:10;}
	.st2{display:none;}
]]>
</style><g class="st2" id="cross"><g class="st0"><line class="st1" x1="112.5" x2="401" y1="112.5" y2="401"/><line class="st1" x1="401" x2="112.5" y1="112.5" y2="401"/></g></g><g id="cross_copy"><path d="M268.064,256.75l138.593-138.593c3.124-3.124,3.124-8.189,0-11.313c-3.125-3.124-8.189-3.124-11.314,0L256.75,245.436   L118.157,106.843c-3.124-3.124-8.189-3.124-11.313,0c-3.125,3.124-3.125,8.189,0,11.313L245.436,256.75L106.843,395.343   c-3.125,3.125-3.125,8.189,0,11.314c1.562,1.562,3.609,2.343,5.657,2.343s4.095-0.781,5.657-2.343L256.75,268.064l138.593,138.593   c1.563,1.562,3.609,2.343,5.657,2.343s4.095-0.781,5.657-2.343c3.124-3.125,3.124-8.189,0-11.314L268.064,256.75z"/></g>
</symbol>
<symbol id="close3" viewBox="0 0 17 17">
    <!-- Generator: Sketch 41.2 (35397) - http://www.bohemiancoding.com/sketch -->
    <title>ic_cancel</title>
    <desc>Created with Sketch.</desc>
    <defs/>
    <g id="Icons" stroke="none" stroke-width="1" fill="none" fill-rule="evenodd" stroke-linecap="round">
        <g id="24-px-Icons" transform="translate(-364.000000, -124.000000)" stroke="#000000">
            <g id="ic_cancel" transform="translate(360.000000, 120.000000)">
                <g id="cross">
                    <g transform="translate(5.000000, 5.000000)" stroke-width="2">
                        <path d="M0,0 L14.1421356,14.1421356" id="Line"/>
                        <path d="M14,0 L1.77635684e-15,14" id="Line"/>
                    </g>
                </g>
            </g>
        </g>
    </g>

</symbol>
<symbol id="compas" viewBox="0 0 50 50">
  <defs>
    <style>
      .cls-1 {
        fill: #fff;
        fill-rule: evenodd;
      }
    </style>
  </defs>
  <path id="north_compass" data-name="north, compass" class="cls-1" d="M150,935a25,25,0,1,1,25-25A25,25,0,0,1,150,935Zm0-47a22,22,0,1,0,22,22A22,22,0,0,0,150,888Zm-10,22,10-15,10,15-10,15Zm4,0,6,10,6-10H144Z" transform="translate(-125 -885)"/>

</symbol>
<symbol id="location" viewBox="0 0 64 64"><g id="Glyph_copy_2"><path d="M42.138,23.162c0-5.566-4.548-10.094-10.138-10.094s-10.138,4.528-10.138,10.094S26.41,33.256,32,33.256   S42.138,28.728,42.138,23.162z"/><path d="M31.995,63.996l4.109-5.375c4.289-5.678,18.282-25.024,18.282-35.601C54.387,9.253,45.391,0.004,32,0.004   S9.613,9.253,9.613,23.021c0,11.39,16.432,33.166,18.301,35.605L31.995,63.996z M17.862,23.162c0-7.771,6.342-14.094,14.138-14.094   s14.138,6.323,14.138,14.094S39.796,37.256,32,37.256S17.862,30.934,17.862,23.162z"/></g>
</symbol>
<symbol id="location_" viewBox="0 0 48 48">
    <g id="Expanded"><g><g><path d="M24,47.759l-0.823-1.191C22.558,45.671,8,24.499,8,16C8,7.178,15.178,0,24,0s16,7.178,16,16     c0,8.499-14.558,29.671-15.177,30.568L24,47.759z M24,2c-7.72,0-14,6.28-14,14c0,6.787,10.885,23.555,14,28.214     C27.115,39.555,38,22.787,38,16C38,8.28,31.72,2,24,2z"/></g>
        <g><path d="M24,23c-3.859,0-7-3.14-7-7s3.141-7,7-7s7,3.14,7,7S27.859,23,24,23z M24,11c-2.757,0-5,2.243-5,5s2.243,5,5,5     s5-2.243,5-5S26.757,11,24,11z"/></g></g></g>
</symbol>
<symbol id="mist" viewBox="0 0 30 40">
  <defs>
    <style>
      .cls-1 {
        fill: #fff;
        fill-rule: evenodd;
      }
    </style>
  </defs>
  <path id="mist" class="cls-1" d="M690,300a15,15,0,0,1-15-15c0-12,15-25,15-25s15,13,15,25A15,15,0,0,1,690,300Zm0-36s-12,11-12,21a12,12,0,0,0,24,0C702,275,690,264,690,264Z" transform="translate(-675 -260)"/>

</symbol>
<symbol id="thermometer" viewBox="0 0 26 50">
  <defs>
    <style>
      .cls-1 {
        fill: #fff;
        fill-rule: evenodd;
      }
    </style>
  </defs>
  <path id="_75_full_thermometer" data-name="75% full thermometer" class="cls-1" d="M973,922a13,13,0,1,1-21.3-10H951V893h0.059a9,9,0,0,1,17.882,0H969v19h-0.7A12.973,12.973,0,0,1,973,922Zm-7-7.986V893h-0.09a5.993,5.993,0,0,0-11.82,0H954v21.014A10,10,0,1,0,966,914.014ZM960,929a7,7,0,0,1-3-13.317V899h6v16.683A7,7,0,0,1,960,929Z" transform="translate(-947 -885)"/>

</symbol>
<symbol id="update" viewBox="0 0 512 512"><title/><g data-name="1" id="_1"><path d="M102.59,341.42a15,15,0,0,1-13.42-8.28,187.41,187.41,0,0,1,35.11-216.86c73.18-73.19,192.26-73.19,265.44,0a15,15,0,0,1-21.21,21.21C307,76,207,76,145.49,137.49A157.45,157.45,0,0,0,116,319.69a15,15,0,0,1-13.4,21.73Z"/><path d="M257,436.61a187.1,187.1,0,0,1-132.72-54.88,15,15,0,1,1,21.21-21.22C207,422,307,422,368.51,360.51A157.45,157.45,0,0,0,398,178.31a15,15,0,0,1,26.82-13.45A187.62,187.62,0,0,1,257,436.61Z"/><path d="M315.21,148.25a15,15,0,0,1-1.47-29.92l47.43-4.73-9.51-47.67a15,15,0,0,1,29.42-5.86L393.82,124a15,15,0,0,1-13.22,17.86l-63.88,6.37C316.21,148.23,315.71,148.25,315.21,148.25Z"/><path d="M147.61,450a15,15,0,0,1-14.7-12.07l-12.74-63.88a15,15,0,0,1,13.23-17.86l63.88-6.37a15,15,0,0,1,3,29.85l-47.43,4.73,9.5,47.67A15,15,0,0,1,147.61,450Z"/></g>
</symbol>
<symbol id="wind" viewBox="0 0 47 39">
  <defs>
    <style>
      .cls-1 {
        fill: #fff;
        fill-rule: evenodd;
      }
    </style>
  </defs>
  <path id="wind" class="cls-1" d="M525,284H487v-3h38a6,6,0,1,0-6-6v3h-3v-3A9,9,0,1,1,525,284Zm-19-6H487v-3h19a4,4,0,1,0-4-4v1h-3v-1A7,7,0,1,1,506,278Zm23,17a8,8,0,0,1-16,0h0v-2h3v2h0a5,5,0,1,0,5-5H487v-3h34A8,8,0,0,1,529,295Z" transform="translate(-487 -264)"/>

</symbol></svg>
