<?xml version="1.0" encoding="utf-8"?>
<svg xmlns="http://www.w3.org/2000/svg">
<symbol id="compas" viewBox="0 0 50 50">
  <defs>
  </defs>
  <path id="north_compass" d="M150,935a25,25,0,1,1,25-25A25,25,0,0,1,150,935Zm0-47a22,22,0,1,0,22,22A22,22,0,0,0,150,888Zm-10,22,10-15,10,15-10,15Zm4,0,6,10,6-10H144Z" transform="translate(-125 -885)"/>

</symbol>
<symbol id="mist" viewBox="0 0 30 40">
  <defs>
  </defs>
  <path id="mist" d="M690,300a15,15,0,0,1-15-15c0-12,15-25,15-25s15,13,15,25A15,15,0,0,1,690,300Zm0-36s-12,11-12,21a12,12,0,0,0,24,0C702,275,690,264,690,264Z" transform="translate(-675 -260)"/>

</symbol>
<symbol id="thermometer" viewBox="0 0 26 50">
  <defs>
  </defs>
  <path id="_75_full_thermometer" d="M973,922a13,13,0,1,1-21.3-10H951V893h0.059a9,9,0,0,1,17.882,0H969v19h-0.7A12.973,12.973,0,0,1,973,922Zm-7-7.986V893h-0.09a5.993,5.993,0,0,0-11.82,0H954v21.014A10,10,0,1,0,966,914.014ZM960,929a7,7,0,0,1-3-13.317V899h6v16.683A7,7,0,0,1,960,929Z" transform="translate(-947 -885)"/>

</symbol>
<symbol id="wind" viewBox="0 0 47 39">
  <defs>
  </defs>
  <path id="wind" d="M525,284H487v-3h38a6,6,0,1,0-6-6v3h-3v-3A9,9,0,1,1,525,284Zm-19-6H487v-3h19a4,4,0,1,0-4-4v1h-3v-1A7,7,0,1,1,506,278Zm23,17a8,8,0,0,1-16,0h0v-2h3v2h0a5,5,0,1,0,5-5H487v-3h34A8,8,0,0,1,529,295Z" transform="translate(-487 -264)"/>

</symbol></svg>
